<?xml version="1.0" standalone="no"?>
<!DOCTYPE svg PUBLIC "-//W3C//DTD SVG 20010904//EN"
 "http://www.w3.org/TR/2001/REC-SVG-20010904/DTD/svg10.dtd">
<svg version="1.0" xmlns="http://www.w3.org/2000/svg"
 width="720.000000pt" height="724.000000pt" viewBox="0 0 720.000000 724.000000"
 preserveAspectRatio="xMidYMid meet">
<metadata>
Created by potrace 1.16, written by Peter Selinger 2001-2019
</metadata>
<g transform="translate(0.000000,724.000000) scale(0.100000,-0.100000)"
fill="#000000" stroke="none">
<path d="M0 3620 l0 -3620 3601 0 3601 0 -6 413 c-3 226 -8 448 -11 492 -14
205 -17 245 -35 430 -7 66 -13 149 -14 185 -3 71 -13 113 -26 105 -5 -3 -8 18
-7 45 0 28 -5 56 -11 62 -15 15 -15 38 0 38 6 0 2 10 -10 23 -11 12 -22 37
-24 56 -2 27 -10 37 -46 57 -23 13 -49 24 -57 24 -9 0 -15 14 -18 38 l-4 37
-1 -38 c-2 -35 -3 -36 -22 -25 -11 7 -20 22 -20 33 -1 19 -32 65 -44 65 -3 0
-6 -13 -6 -30 0 -27 -3 -30 -30 -30 -16 0 -30 5 -30 10 0 6 -12 10 -27 10 -21
0 -24 3 -15 12 15 15 16 38 2 38 -5 0 -19 9 -30 20 l-20 20 21 0 c23 0 21 24
-2 26 -8 0 -22 4 -32 9 -10 4 -21 5 -24 2 -3 -4 -14 -2 -24 4 -24 12 -25 49
-2 49 13 0 14 3 5 12 -10 10 -19 8 -42 -5 -30 -18 -30 -18 -30 6 0 35 -25 54
-39 30 -9 -17 -10 -17 -16 0 -4 9 -16 17 -26 17 -12 0 -19 7 -19 20 0 15 6 19
28 16 15 -2 19 -1 10 1 -11 3 -18 14 -18 29 0 13 -4 24 -10 24 -5 0 -10 -9
-10 -20 0 -11 -7 -20 -16 -20 -8 0 -12 -5 -9 -10 3 -5 1 -10 -6 -10 -6 0 -18
-8 -26 -18 -13 -15 -14 -13 -9 24 4 27 1 47 -9 60 -14 18 -14 18 -15 -3 0 -13
5 -23 10 -23 18 0 10 -18 -10 -25 -11 -4 -18 -11 -14 -16 7 -11 -44 -89 -57
-89 -5 0 -20 -22 -33 -49 -22 -46 -22 -51 -7 -66 15 -15 14 -18 -10 -39 -14
-12 -24 -27 -21 -34 2 -7 -1 -12 -7 -12 -6 0 -11 -11 -11 -25 0 -14 -4 -25
-10 -25 -5 0 -10 5 -10 10 0 6 -4 10 -10 10 -5 0 -10 -9 -10 -20 0 -11 7 -20
15 -20 12 0 14 -4 5 -19 -6 -13 -7 -22 0 -26 18 -11 -2 -33 -36 -40 -33 -6
-34 -7 -19 -28 19 -27 19 -63 0 -71 -16 -6 -22 -86 -6 -86 12 0 1 -50 -17 -77
-9 -15 -15 -53 -16 -104 -1 -52 -6 -83 -14 -88 -9 -5 -12 -29 -11 -70 2 -43
-2 -65 -11 -71 -8 -5 -10 -17 -6 -33 4 -16 1 -29 -9 -37 -20 -16 -20 -60 0
-60 17 0 20 -17 4 -22 -12 -4 -31 -119 -34 -208 -2 -63 -11 -147 -25 -240 -5
-36 -12 -104 -16 -153 -3 -48 -10 -85 -15 -81 -5 3 -9 0 -9 -5 0 -6 5 -11 10
-11 12 0 13 -80 1 -98 -4 -8 -4 -35 1 -60 10 -54 0 -142 -13 -121 -6 9 -9 -3
-9 -33 l0 -48 -494 0 c-440 0 -495 2 -500 16 -7 17 -32 211 -46 349 -5 50 -14
108 -20 130 -6 22 -17 74 -25 116 -8 42 -26 109 -40 149 -14 41 -25 87 -25
104 0 17 -9 78 -21 136 -35 182 -41 291 -19 400 10 52 22 138 25 190 4 52 18
162 31 245 13 82 24 180 24 217 0 38 6 83 13 101 8 18 17 49 21 69 l7 37 97
-1 c86 -1 104 2 153 26 31 14 59 26 64 26 4 0 24 13 44 29 20 16 47 31 61 33
20 2 26 10 32 45 4 23 13 54 21 70 17 34 57 172 86 303 36 157 50 387 36 568
-6 78 -10 92 -25 92 -11 0 -25 15 -35 37 -10 20 -27 45 -39 56 -22 19 -185
100 -250 123 -36 13 -134 87 -163 124 -19 24 -15 57 9 74 50 35 166 11 268
-55 87 -56 189 -148 205 -184 l13 -30 1 40 c0 25 -11 63 -29 100 -17 35 -29
52 -30 40 0 -11 8 -32 17 -45 l17 -25 -22 19 c-12 10 -24 28 -28 39 -5 15 -8
16 -14 6 -12 -19 -42 8 -35 32 4 11 -1 21 -12 28 -10 5 -27 25 -37 45 -19 36
-19 36 5 81 21 39 22 47 9 55 -12 7 -16 3 -21 -19 -3 -15 -9 -33 -13 -40 -12
-19 -36 7 -36 40 0 16 -4 29 -9 29 -5 0 -17 3 -25 6 -12 5 -16 1 -14 -17 3
-20 -2 -24 -22 -24 -23 0 -25 3 -24 45 1 24 6 46 12 48 7 2 10 13 6 26 -7 30
19 54 41 36 21 -17 19 -36 -7 -54 l-21 -15 28 -11 c16 -6 48 -14 72 -17 24 -3
43 -10 43 -15 0 -5 4 -6 10 -3 5 3 15 -5 21 -18 11 -25 -2 -100 -20 -111 -10
-7 -2 -56 10 -56 4 0 9 19 11 43 2 29 8 42 18 42 20 0 27 -100 8 -122 -11 -14
-11 -15 8 -5 12 6 24 9 27 5 4 -3 2 9 -3 28 -6 19 -10 41 -10 49 0 13 1 13 10
0 7 -10 10 8 10 60 0 41 -4 80 -8 86 -4 6 -32 29 -62 51 -68 49 -77 61 -115
137 -25 50 -34 61 -55 61 -29 0 -70 25 -70 42 0 26 95 60 107 38 5 -7 17 -13
27 -12 10 1 21 -4 24 -12 3 -8 0 -11 -7 -7 -18 12 -13 2 10 -18 21 -18 22 -18
15 9 -6 22 -4 26 11 23 13 -2 21 -19 30 -58 6 -30 12 -45 12 -32 1 12 6 31 13
41 9 15 8 24 -5 45 -22 33 -21 39 4 26 41 -23 34 4 -18 66 -10 12 -52 39 -93
60 -41 21 -88 48 -103 61 -16 13 -38 23 -49 23 -30 0 -140 45 -193 79 -57 36
-125 55 -168 47 -18 -3 -58 -22 -88 -41 -30 -19 -61 -35 -70 -35 -20 0 -116
60 -144 90 -108 116 -166 152 -209 132 -21 -9 -25 -7 -41 26 -37 77 -88 229
-94 281 -6 52 -7 54 -23 37 -10 -9 -33 -18 -52 -19 -19 -2 -38 -6 -42 -9 -4
-4 -15 -3 -26 3 -21 11 -38 4 -38 -17 0 -8 -7 -14 -15 -14 -7 0 -18 -7 -23
-16 -6 -11 -14 -14 -23 -8 -8 5 -22 7 -31 6 -10 -2 -18 2 -18 7 0 21 -18 11
-24 -14 -5 -18 -13 -25 -31 -25 -13 0 -27 5 -30 10 -4 6 -16 8 -27 4 -11 -3
-30 -7 -41 -8 -12 -2 -37 -6 -55 -10 -21 -5 -38 -3 -47 4 -12 10 -16 9 -21 -3
-5 -13 -10 -13 -35 -3 -15 7 -39 21 -52 32 -16 14 -29 18 -43 13 -11 -4 -13
-8 -5 -8 8 -1 12 -4 9 -7 -3 -3 -29 7 -58 21 -29 14 -54 25 -56 23 -2 -2 19
-26 47 -54 28 -27 58 -57 67 -66 9 -10 20 -18 24 -18 4 0 19 -11 33 -24 15
-14 33 -22 40 -19 8 2 31 -1 52 -8 21 -7 70 -14 108 -15 39 0 84 -4 101 -8 25
-5 33 -3 38 10 4 11 14 15 33 11 19 -3 33 2 50 19 13 13 26 24 29 24 3 0 28
25 57 56 83 91 87 94 96 94 14 0 21 -28 14 -61 -4 -22 -8 -27 -15 -17 -6 9 -8
6 -6 -12 1 -14 -15 -61 -36 -104 -21 -44 -40 -96 -43 -115 -10 -65 -27 -85
-97 -114 -37 -15 -76 -27 -89 -27 -12 0 -26 -4 -32 -8 -13 -9 -17 -52 -5 -52
6 0 10 -6 10 -14 0 -11 -7 -12 -27 -7 -20 5 -39 1 -70 -16 -37 -22 -48 -23
-95 -14 -32 5 -60 6 -70 0 -27 -15 -43 -12 -28 6 7 8 8 15 2 15 -5 0 -12 9
-15 20 -6 22 3 26 20 9 8 -8 23 -3 54 18 l43 28 -75 6 c-66 6 -111 12 -175 24
-16 4 -25 19 -38 65 -10 34 -19 71 -22 83 -16 84 -27 134 -34 147 -5 9 -13 58
-19 110 -11 96 -46 227 -72 268 -8 12 -22 22 -33 22 -29 0 -121 74 -157 126
-50 73 -69 134 -69 220 0 70 2 78 29 105 18 18 40 29 56 29 24 0 26 3 21 26
-7 25 -6 25 49 23 54 -2 55 -3 55 -32 0 -29 -1 -29 -40 -23 -46 7 -48 4 -20
-31 20 -25 28 -101 13 -117 -9 -9 -33 -79 -28 -84 2 -2 11 13 20 34 9 21 19
34 24 28 8 -9 29 -104 30 -134 0 -18 16 -84 29 -125 l10 -30 1 30 c0 17 -10
75 -24 130 -24 99 -34 246 -17 272 6 9 13 9 32 0 18 -9 27 -27 40 -79 28 -116
54 -131 235 -135 l130 -2 37 78 c20 44 40 90 43 104 9 33 38 60 61 55 10 -2
25 -23 37 -53 36 -94 71 -170 89 -191 22 -25 23 -48 2 -69 -12 -11 -20 -13
-27 -6 -16 16 -44 13 -51 -5 -9 -22 -8 -23 17 -17 l22 5 -22 -20 c-26 -22 -29
-37 -11 -48 7 -5 9 -2 6 8 -5 11 8 21 48 38 62 27 71 44 48 94 -10 20 -15 38
-13 41 3 2 21 0 40 -5 45 -13 140 -13 194 1 82 21 116 80 117 204 0 103 14 93
25 -17 9 -80 8 -123 -3 -188 -7 -46 -12 -86 -12 -89 1 -3 -4 -32 -12 -64 -7
-31 -10 -60 -7 -64 9 -8 18 1 21 21 1 8 10 24 20 35 10 11 15 27 12 38 -3 10
-2 24 3 31 6 10 10 10 21 -3 7 -8 17 -15 22 -15 5 0 29 42 53 93 37 78 45 104
47 164 3 64 0 74 -21 97 -15 16 -35 26 -53 26 -33 0 -34 4 -12 56 22 52 45
148 49 209 2 28 7 85 10 128 6 63 4 82 -9 102 -10 15 -16 42 -14 66 1 22 -3
44 -10 47 -6 4 -25 41 -41 82 -25 61 -42 85 -88 127 -32 29 -78 61 -103 70
-25 9 -55 23 -66 30 -12 8 -34 15 -50 17 -46 7 -115 24 -163 41 -24 8 -58 15
-76 15 -49 0 -56 14 -44 100 6 41 15 77 20 78 5 2 9 14 9 27 0 12 6 37 13 54
l13 31 982 0 c717 0 982 -3 982 -11 0 -6 7 -9 15 -5 9 3 25 -6 40 -22 14 -15
25 -23 25 -18 0 5 9 -1 20 -14 24 -28 25 -31 3 -23 -15 5 -16 3 -5 -8 6 -7 12
-25 12 -40 0 -30 15 -39 63 -39 27 -1 29 -2 15 -11 -26 -14 -22 -33 12 -71 17
-18 30 -43 30 -56 0 -13 4 -20 10 -17 5 3 25 -6 44 -20 23 -17 42 -24 54 -20
22 6 52 -17 52 -41 0 -8 6 -14 14 -14 7 0 21 -15 30 -34 12 -26 25 -36 61 -46
25 -7 45 -17 45 -21 0 -5 11 -7 25 -3 15 4 25 2 25 -5 0 -6 15 -15 33 -20 31
-9 31 -9 5 -10 -36 -1 -35 -12 0 -33 19 -11 33 -14 42 -8 22 14 80 11 115 -5
17 -7 24 -14 18 -14 -21 -2 -14 -21 7 -21 15 0 20 7 20 28 1 25 2 26 15 9 9
-13 21 -17 37 -13 13 3 17 3 11 0 -7 -3 -13 -17 -13 -30 0 -25 14 -32 25 -13
4 5 18 14 31 20 34 12 104 -23 104 -52 0 -17 4 -20 23 -15 12 3 25 6 30 6 11
0 8 40 -3 40 -5 0 -10 7 -10 15 0 8 5 15 10 15 6 0 10 -7 10 -16 0 -10 6 -14
15 -10 8 3 28 -6 45 -20 21 -18 30 -22 30 -11 0 9 8 13 23 12 12 -1 32 -3 45
-4 18 -1 22 -7 23 -33 0 -18 3 -26 6 -18 4 8 12 21 20 28 7 7 13 23 14 35 l0
22 16 -22 c22 -33 39 -28 56 15 12 26 16 31 16 16 1 -12 9 -28 18 -35 9 -8 14
-9 10 -3 -9 15 19 38 46 39 12 1 32 2 45 3 l22 2 0 330 0 330 -3600 0 -3600 0
0 -3620z m3570 2830 c0 -5 16 -17 36 -26 30 -15 40 -15 57 -5 11 7 53 19 93
26 64 11 80 11 121 -4 26 -9 67 -35 92 -58 24 -24 49 -43 54 -43 5 0 3 -7 -4
-16 -12 -14 -11 -16 6 -12 28 5 51 -29 63 -92 15 -78 27 -104 57 -124 22 -15
26 -23 23 -57 -4 -48 -17 -52 -43 -13 -11 17 -26 29 -33 26 -24 -8 -42 17 -32
44 6 15 6 24 0 24 -6 0 -10 -9 -10 -20 0 -17 -4 -19 -17 -12 -30 15 -111 7
-134 -14 -14 -13 -22 -15 -27 -7 -5 8 -24 3 -62 -15 -30 -15 -64 -26 -74 -24
-14 3 -18 0 -14 -15 6 -22 -20 -43 -53 -43 -11 0 -28 -4 -38 -10 -13 -7 -34
-2 -78 19 -33 16 -63 34 -67 39 -3 6 -15 8 -26 5 -12 -3 -20 0 -20 7 0 7 -7
10 -16 6 -8 -3 -25 0 -37 8 -12 8 -33 17 -45 21 -22 6 -23 5 -11 -17 11 -20
11 -22 -3 -10 -26 21 -145 4 -180 -26 -30 -25 -21 -35 26 -28 24 4 80 4 123 0
73 -7 76 -8 49 -19 -20 -8 -25 -14 -15 -18 9 -4 7 -6 -6 -7 -11 0 -29 -7 -39
-15 -10 -8 -22 -13 -26 -10 -3 2 -27 5 -53 6 -49 3 -55 7 -35 27 8 8 8 12 1
12 -6 0 -16 -7 -23 -15 -17 -21 -27 -19 -33 6 -5 17 -11 20 -31 15 -30 -7 -32
-4 -41 56 -6 40 -4 49 15 65 38 32 48 64 49 162 1 91 10 121 35 121 7 0 25 14
42 31 26 28 33 30 72 24 33 -5 48 -3 62 10 14 13 33 15 97 11 43 -3 85 -1 93
4 20 13 60 13 60 0z m-22 -512 c14 -14 16 -48 3 -48 -11 0 -30 -53 -36 -100
-7 -60 -24 -87 -57 -94 -74 -15 -165 -16 -212 -4 -61 16 -87 49 -94 117 l-5
51 56 -29 c50 -26 62 -29 138 -26 78 4 86 6 106 31 20 25 23 26 29 10 4 -11 1
-21 -7 -27 -9 -5 -10 -9 -2 -9 12 0 45 43 56 73 4 10 3 27 -3 36 -15 28 5 42
28 19z m542 -45 c0 10 5 15 10 12 14 -9 12 -81 -3 -135 -19 -63 -62 -84 -177
-84 -101 -1 -144 17 -166 69 -8 19 -14 36 -14 38 0 3 18 3 41 1 l40 -4 -20 27
c-25 31 -26 43 -6 43 8 0 14 -5 13 -11 -4 -17 48 -52 81 -54 22 -1 28 2 23 13
-4 11 -1 14 11 9 22 -8 87 11 94 29 3 8 11 14 19 14 8 0 14 7 14 15 0 8 4 15
10 15 5 0 7 8 4 18 -3 9 2 6 10 -8 12 -20 15 -22 16 -7z m0 -936 c0 -12 11
-39 25 -59 21 -31 23 -41 14 -65 -9 -24 -7 -30 10 -42 23 -14 28 -55 10 -67
-7 -4 -16 1 -21 10 -12 22 -31 10 -23 -15 4 -13 1 -21 -12 -26 -10 -4 -22 -12
-28 -18 -18 -19 -45 -72 -39 -78 3 -3 -4 -10 -15 -17 -26 -14 -27 0 -5 76 15
52 53 113 54 86 0 -7 4 -11 10 -7 5 3 6 13 3 21 -4 11 0 15 13 12 25 -4 30 28
8 53 -20 22 -35 100 -27 141 6 32 23 28 23 -5z m292 -577 c40 -24 76 -25 123
-3 35 17 36 17 90 -13 66 -35 86 -73 55 -104 -11 -11 -43 -31 -72 -46 -130
-66 -534 -48 -614 27 -27 25 -31 61 -10 78 8 7 47 24 87 38 61 22 89 26 156
24 46 -1 91 2 100 8 27 16 49 13 85 -9z m-1577 -33 c66 1 144 5 174 8 l54 7
-6 -103 c-4 -63 -11 -107 -19 -115 -7 -6 -63 -37 -125 -69 l-111 -57 -116 47
-116 48 0 108 c0 60 4 109 9 109 13 0 22 -46 15 -75 -6 -24 -4 -25 44 -25 27
0 65 -3 83 -6 25 -4 30 -3 19 5 -12 8 -10 16 16 48 41 50 62 53 96 13 15 -18
25 -37 22 -42 -3 -4 12 -7 33 -7 23 1 29 3 15 6 -34 7 -48 40 -26 64 18 20
104 28 104 9 0 -5 -12 -10 -27 -10 -16 0 -35 -5 -43 -10 -13 -9 -12 -12 5 -25
18 -14 20 -14 27 5 4 11 14 20 22 20 35 0 28 -46 -7 -53 -13 -2 -6 -5 16 -6
l37 -1 0 50 0 50 -43 0 c-95 0 -257 -14 -246 -20 18 -12 2 -29 -21 -23 -17 5
-20 0 -20 -26 0 -24 -4 -31 -20 -31 -16 0 -20 7 -20 34 0 28 -4 35 -22 38 -13
2 -22 9 -20 16 1 6 -6 12 -15 13 -15 0 -15 2 2 9 11 5 40 6 65 2 25 -4 99 -6
165 -5z m-655 -192 c22 -12 30 -23 30 -43 0 -15 6 -51 13 -79 l14 -52 -57 -20
c-79 -29 -160 -26 -160 5 0 8 -8 14 -17 14 -13 0 -9 6 12 20 40 26 42 26 37
-15 -4 -37 4 -43 39 -24 18 9 19 12 6 22 -8 7 -18 22 -21 33 -5 17 0 24 23 34
42 17 58 37 42 53 -9 9 -30 2 -92 -32 -72 -38 -121 -48 -104 -21 11 18 179
119 198 120 4 0 21 -7 37 -15z m2100 -121 c0 -8 10 -14 25 -14 14 0 34 -9 45
-20 27 -27 30 -26 30 15 0 28 4 35 19 35 18 0 20 -7 18 -72 -2 -67 -4 -73 -24
-76 -18 -3 -23 2 -23 17 l0 21 -21 -21 c-16 -16 -29 -20 -51 -15 -17 3 -37 6
-44 6 -8 0 -14 11 -14 26 l0 27 -21 -27 c-35 -44 -101 -32 -122 24 -3 8 -6 0
-6 -17 -1 -22 -6 -33 -16 -33 -10 0 -15 10 -15 33 l-1 32 -17 -35 c-23 -47
-47 -50 -57 -8 l-8 33 -6 -35 c-4 -23 -12 -36 -25 -38 -18 -4 -18 1 -12 64 8
78 11 84 37 84 12 0 24 -12 32 -32 l14 -33 16 38 c13 29 22 37 41 37 23 0 26
-4 26 -37 0 -21 4 -33 8 -27 10 16 48 34 71 34 11 0 29 -12 40 -26 l21 -27 0
41 c0 23 5 42 13 45 16 6 27 -1 27 -19z m369 10 c27 -6 31 -10 31 -41 0 -19
-5 -55 -11 -80 l-12 -45 -51 6 c-28 3 -61 6 -73 6 -22 0 -23 4 -23 73 0 41 3
77 7 80 8 9 90 9 132 1z m-1539 -122 c0 -32 -210 -145 -269 -146 -20 -1 -42
-5 -50 -10 -8 -5 -16 -4 -22 5 -6 10 -9 11 -9 1 0 -8 -9 -10 -27 -7 -16 4 -38
8 -51 11 -13 3 -20 9 -16 15 4 8 8 8 13 1 8 -13 34 -10 53 6 8 6 18 10 21 7 4
-3 5 -2 2 2 -7 9 -35 13 -34 5 3 -20 -4 -21 -32 -6 -21 10 -29 11 -23 3 5 -9
2 -10 -10 -6 -10 4 -15 3 -11 -3 4 -6 -9 -10 -32 -10 -27 0 -34 3 -23 9 8 6
18 7 22 5 12 -8 9 11 -4 24 -9 9 -8 12 5 12 17 0 23 15 10 23 -5 2 -3 2 4 1 6
-2 13 2 16 9 2 8 32 12 93 12 49 -1 92 4 96 9 3 5 59 15 125 21 156 16 153 16
153 7z m-903 -32 c40 -24 52 -63 28 -90 -20 -22 -74 -33 -175 -34 -66 -1 -81
-5 -125 -33 -27 -18 -76 -47 -107 -65 -44 -25 -58 -38 -58 -55 0 -29 30 -31
55 -3 18 20 18 21 -1 14 -17 -6 -17 -5 2 9 11 9 33 19 47 23 15 3 31 13 35 20
8 15 193 64 240 64 25 0 25 -1 9 -17 -13 -13 -19 -14 -29 -5 -7 7 -17 12 -22
12 -6 0 -2 -7 8 -15 19 -15 19 -15 -3 -39 -28 -30 -130 -69 -156 -61 -17 6
-18 5 -5 -5 12 -9 10 -10 -13 -5 -19 4 -26 2 -22 -5 4 -6 -4 -10 -17 -10 -13
0 -29 -5 -36 -12 -9 -9 -12 -9 -12 2 -1 12 -3 11 -11 -2 -6 -11 -16 -15 -26
-11 -11 4 -14 3 -9 -5 5 -8 0 -12 -13 -12 -15 0 -19 4 -14 17 4 11 3 14 -5 9
-7 -4 -12 -13 -12 -20 0 -8 -7 -19 -15 -26 -12 -10 -16 -9 -22 5 -8 22 15 138
29 146 7 5 8 26 4 60 -4 30 -4 50 0 46 4 -3 12 0 18 8 13 16 183 92 235 104
69 17 163 13 198 -9z m2158 -137 c28 -9 56 -21 64 -27 28 -22 -9 -195 -50
-232 -15 -13 -37 -19 -77 -19 -31 0 -60 -4 -64 -10 -5 -6 -8 -5 -8 3 0 6 -12
12 -28 12 -42 0 -91 52 -94 99 -6 127 13 185 66 193 42 6 142 -4 191 -19z
m696 -95 c72 -25 104 -119 46 -133 -12 -3 -51 1 -87 9 -36 8 -59 15 -52 15 10
1 13 16 10 61 -3 59 -2 60 23 60 14 0 41 -5 60 -12z m-2485 -149 c16 -17 52
-42 79 -56 28 -14 52 -28 55 -32 3 -3 23 -22 45 -41 l40 -35 -83 -3 c-83 -2
-83 -2 -76 20 3 13 7 23 8 24 0 1 10 6 21 12 18 10 17 11 -12 12 -40 0 -87 40
-108 93 -19 45 -8 47 31 6z m1921 -30 c29 -6 63 -21 78 -35 22 -20 26 -32 25
-77 0 -28 4 -87 10 -130 15 -114 0 -133 -115 -144 -51 -5 -70 -2 -90 11 -30
20 -45 14 -26 -8 10 -12 7 -16 -21 -21 -88 -15 -82 -20 -90 79 -7 98 -31 207
-60 275 -17 41 -17 43 -1 36 10 -4 28 -8 40 -8 12 -1 21 -5 20 -10 -1 -5 9
-13 23 -17 14 -4 44 -13 66 -20 23 -7 57 -28 75 -48 22 -23 35 -30 38 -21 2 7
-18 32 -45 56 -27 23 -43 43 -36 43 6 0 11 3 11 8 -7 41 15 48 98 31z m-933
-35 c10 -4 16 -18 16 -35 0 -16 11 -51 24 -77 15 -28 26 -69 28 -102 l3 -55
-50 -18 c-38 -13 -70 -16 -137 -13 -91 5 -122 15 -149 49 -16 20 -16 20 -73
-6 -56 -26 -58 -26 -94 -9 -24 11 -38 25 -40 40 -4 29 -35 29 -59 -1 -27 -35
-64 -57 -94 -57 -15 0 -32 -7 -39 -15 -7 -8 -18 -15 -25 -15 -7 0 -18 -7 -25
-15 -8 -9 -30 -15 -56 -15 -40 0 -44 2 -44 25 0 27 33 63 67 71 12 3 24 12 27
20 3 8 12 14 21 14 8 0 15 9 15 20 0 16 -7 20 -38 20 -39 0 -62 14 -62 37 0
16 26 30 75 38 l40 7 -30 -25 c-17 -14 -26 -29 -21 -34 5 -4 11 -2 13 5 7 20
61 43 86 37 14 -4 48 5 91 25 53 23 81 30 122 29 39 -2 59 3 73 15 22 20 62
18 69 -3 3 -9 -2 -11 -18 -6 -26 8 -82 -13 -73 -28 4 -6 0 -8 -9 -4 -12 4 -14
1 -10 -15 4 -15 7 -17 13 -6 7 11 11 10 20 -2 9 -13 10 -12 5 3 -3 9 -2 17 2
17 16 -1 27 -17 29 -44 3 -38 8 -42 36 -23 15 10 27 30 31 51 4 20 11 36 16
36 5 0 35 16 67 35 57 34 116 45 157 29z m672 -520 c-4 -14 -2 -24 4 -24 6 0
15 -11 21 -24 14 -30 -2 -63 -36 -72 -18 -4 -25 -13 -25 -30 0 -15 6 -24 15
-24 9 0 18 -7 22 -16 3 -8 11 -13 18 -10 16 6 68 -29 76 -51 16 -43 -38 -55
-127 -28 -27 8 -63 15 -81 15 -22 0 -42 9 -63 30 -39 38 -89 42 -84 8 3 -14
-6 -35 -20 -52 -23 -28 -24 -28 -75 -16 l-51 12 -42 -44 c-50 -51 -98 -68
-191 -68 -84 0 -115 14 -123 54 -9 49 -1 111 14 108 7 -1 16 8 21 21 13 33 32
46 103 68 79 24 81 24 73 -2 l-7 -22 23 22 c28 26 59 28 59 4 0 -30 46 -26 59
5 9 18 15 22 23 14 21 -21 69 13 99 70 18 35 18 38 1 48 -40 26 93 -2 157 -33
55 -27 66 -36 63 -54 -3 -18 2 -23 17 -23 23 0 28 15 9 24 -9 3 -7 8 6 17 18
11 18 13 -13 38 l-32 27 33 35 c31 34 34 35 46 17 8 -11 11 -30 8 -44z m-886
-745 c0 -8 6 -7 17 2 11 9 14 10 10 2 -8 -12 9 -19 63 -25 25 -3 25 -4 30
-128 3 -69 5 -126 5 -127 0 0 -20 -3 -45 -4 -29 -2 -45 0 -45 8 0 22 -13 25
-38 9 -35 -23 -90 -28 -113 -11 -15 12 -16 14 -3 15 8 0 19 -4 25 -9 5 -5 17
-1 29 12 16 16 17 19 3 14 -12 -4 -15 -2 -12 8 3 7 -3 16 -15 20 -12 3 -21 10
-21 15 0 5 12 2 28 -6 38 -20 50 -18 83 15 33 34 37 66 12 110 -21 37 -55 48
-96 33 l-30 -11 28 29 c23 24 31 27 47 19 11 -6 22 -8 26 -5 3 3 0 6 -7 6 -7
0 -9 5 -6 10 8 14 25 13 25 -1z m557 -74 c52 -38 69 -70 48 -91 -8 -9 -13 -20
-10 -25 10 -15 -14 -48 -45 -64 -35 -18 -258 -22 -228 -4 10 5 17 20 16 32 0
12 4 42 11 65 7 24 9 56 6 72 -3 16 -2 31 4 35 10 6 15 -30 15 -114 0 -23 2
-23 66 -18 77 8 106 31 96 81 -8 41 -24 56 -58 56 -16 0 -27 4 -24 9 9 14 59
-2 103 -34z m160 -37 c18 -2 34 0 37 6 2 6 5 -3 5 -21 2 -58 54 -82 95 -44 15
13 30 17 54 14 81 -13 -5 -113 -98 -113 -89 0 -140 50 -140 137 0 26 4 43 8
37 4 -6 22 -13 39 -16z m-1234 -1030 c-50 -56 -62 -130 -31 -194 5 -12 8 -32
6 -45 -4 -22 -5 -23 -12 -4 -32 84 -69 140 -96 143 -14 2 -33 11 -43 20 -11 9
-24 17 -30 18 -7 0 -21 2 -32 3 -20 2 -20 2 -1 16 17 13 17 15 3 21 -20 7 -22
25 -6 41 14 14 43 -2 106 -59 58 -52 71 -49 99 17 22 54 35 68 47 56 7 -7 4
-18 -10 -33z"/>
<path d="M4186 3683 c4 -44 12 -73 22 -80 36 -29 64 -7 97 72 28 71 26 73 -68
74 l-58 1 7 -67z"/>
<path d="M3845 5450 c-3 -5 -13 -6 -23 -3 -16 6 -16 6 1 -11 9 -9 17 -19 17
-20 0 -2 -72 -3 -160 -4 -90 -1 -168 -6 -179 -12 -30 -15 -54 -13 -47 6 3 8 2
12 -3 9 -6 -3 -14 3 -20 12 -7 11 -14 14 -18 8 -5 -5 -14 -10 -20 -11 -7 -1
-17 -2 -23 -2 -5 -1 -10 -15 -10 -32 0 -21 4 -28 14 -24 7 3 16 -2 19 -10 6
-16 34 -15 102 4 38 11 263 22 276 14 6 -4 6 -11 -2 -20 -17 -21 9 -18 64 6
25 11 52 17 61 14 12 -5 16 0 16 22 -1 48 -46 85 -65 54z"/>
</g>
</svg>
