<?xml version="1.0" standalone="no"?>
<!DOCTYPE svg PUBLIC "-//W3C//DTD SVG 20010904//EN"
 "http://www.w3.org/TR/2001/REC-SVG-20010904/DTD/svg10.dtd">
<svg version="1.0" xmlns="http://www.w3.org/2000/svg"
 width="720.000000pt" height="722.000000pt" viewBox="0 0 720.000000 722.000000"
 preserveAspectRatio="xMidYMid meet">
<metadata>
Created by potrace 1.16, written by Peter Selinger 2001-2019
</metadata>
<g transform="translate(0.000000,722.000000) scale(0.100000,-0.100000)"
fill="#000000" stroke="none">
<path d="M1510 6976 c-60 -7 -120 -20 -140 -31 -19 -10 -48 -17 -65 -17 -28 1
-70 -14 -272 -100 -40 -17 -90 -46 -112 -64 -21 -19 -43 -34 -48 -34 -14 0
-78 -70 -106 -117 -15 -23 -50 -68 -79 -101 -75 -84 -93 -142 -93 -302 0 -102
4 -134 21 -177 11 -28 25 -57 31 -65 6 -7 14 -42 17 -77 8 -67 32 -141 47
-141 5 0 9 -8 9 -17 1 -10 9 -32 18 -49 39 -71 92 -182 92 -193 0 -6 9 -30 21
-53 12 -23 37 -90 56 -150 24 -78 43 -118 65 -141 16 -18 48 -62 69 -99 45
-76 72 -100 106 -92 18 5 23 2 23 -13 0 -10 16 -49 35 -85 32 -59 85 -119 168
-190 44 -38 234 -133 324 -163 l83 -27 -22 -41 c-37 -73 -50 -89 -62 -77 -6 6
-11 16 -11 21 0 11 -42 35 -115 67 -72 32 -82 34 -147 39 -58 4 -63 2 -63 -17
0 -12 10 -25 23 -31 12 -5 33 -16 47 -24 14 -8 33 -15 43 -15 40 0 117 -64
117 -97 0 -25 28 -48 73 -58 23 -6 26 -11 21 -29 -10 -32 -11 -32 -57 3 -23
17 -53 37 -67 44 -14 6 -29 16 -33 22 -5 6 -7 0 -4 -12 3 -16 0 -23 -9 -23 -8
0 -14 -4 -14 -10 0 -5 12 -10 28 -10 15 0 33 -4 40 -9 15 -9 -38 -21 -96 -21
-42 0 -38 -21 6 -32 17 -5 34 -13 38 -20 7 -11 -47 -7 -113 8 l-28 6 23 -23
c21 -22 30 -24 127 -24 75 0 105 -3 105 -12 0 -18 -12 -22 -76 -28 -104 -10
-114 -12 -114 -18 0 -4 0 -13 0 -21 0 -19 43 -29 117 -27 77 3 103 -5 103 -29
0 -28 -24 -37 -166 -60 -265 -42 -335 -51 -564 -71 -271 -23 -363 -23 -368 3
-2 9 -19 33 -38 53 -19 20 -34 47 -34 60 0 23 -23 55 -40 55 -10 0 -30 55 -30
81 0 13 5 16 16 12 13 -5 15 -1 10 18 -3 13 -3 18 0 11 4 -10 17 -6 50 13 24
14 46 25 49 25 14 -1 7 10 -17 30 -17 13 -28 31 -28 46 0 18 -6 24 -22 25 -14
1 -6 6 22 14 l45 13 -35 2 c-19 2 -51 4 -71 5 -20 1 -41 5 -46 8 -6 4 -25 -4
-42 -18 -30 -21 -42 -23 -127 -21 -56 1 -95 -2 -97 -8 -2 -7 -16 -7 -40 1 -40
12 -56 3 -32 -17 19 -15 19 -30 2 -30 -13 0 -18 -9 -47 -72 -7 -15 -9 -135 -8
-327 l3 -305 37 -20 c62 -36 137 -90 133 -96 -2 -4 16 -19 41 -35 24 -15 42
-30 40 -32 -8 -8 -151 63 -203 101 l-53 38 0 -141 0 -141 32 -20 c35 -21 215
-67 224 -57 3 3 -10 9 -30 12 -20 4 -39 11 -42 16 -3 5 -14 9 -25 9 -21 0
-104 39 -97 45 3 4 47 -6 96 -20 13 -5 22 -3 22 4 0 15 37 14 114 -4 87 -20
164 -54 148 -64 -9 -5 -11 -17 -6 -35 6 -27 6 -27 -32 -21 -88 15 -303 66
-351 84 l-53 19 0 -48 0 -47 60 -2 c91 -2 262 -28 311 -47 66 -26 99 -52 98
-77 -1 -12 2 -103 6 -203 6 -153 5 -185 -8 -210 -19 -37 -65 -52 -127 -42 -60
9 -245 10 -295 0 l-40 -7 -2 -85 c-3 -80 -2 -83 12 -58 8 15 16 39 17 53 2 17
9 27 23 30 205 38 315 43 315 13 0 -7 -14 -9 -39 -5 -21 2 -44 1 -52 -4 -13
-8 -7 -11 59 -34 10 -4 12 -14 7 -37 -9 -42 -13 -48 -31 -48 -9 0 -14 -11 -14
-35 0 -25 -4 -33 -13 -29 -8 3 -20 -2 -27 -11 -7 -8 -25 -15 -41 -15 -16 0
-29 -4 -29 -10 0 -5 16 -10 35 -10 l34 0 -21 -36 -21 -36 -90 6 c-49 4 -98 11
-108 17 -18 9 -19 -2 -19 -410 l0 -420 80 -57 c44 -32 80 -61 80 -65 0 -3 -7
-24 -16 -45 -11 -27 -14 -53 -10 -86 6 -39 3 -54 -17 -85 -13 -21 -45 -81 -70
-133 l-47 -96 0 -377 0 -377 3601 0 3600 0 -3 42 c-2 26 -9 43 -18 46 -13 3
-13 2 0 -7 13 -9 13 -11 -1 -11 -12 0 -15 -7 -11 -25 4 -23 1 -25 -32 -25
l-37 0 3 43 c2 24 8 43 16 43 6 1 17 2 22 3 16 2 11 31 -5 31 -8 0 -15 -4 -15
-10 0 -5 -7 -7 -15 -3 -10 3 -15 0 -13 -8 2 -8 -7 -15 -19 -17 -19 -3 -23 -10
-23 -43 0 -28 -4 -39 -15 -39 -8 0 -15 4 -15 9 0 5 -24 17 -52 26 -65 21 -90
41 -68 55 12 7 12 12 2 22 -6 6 -12 20 -12 30 0 22 -38 25 -46 4 -6 -16 -38
-10 -55 10 -6 8 -25 14 -42 14 -29 0 -29 -1 -14 -18 17 -18 24 -62 10 -62 -3
0 -28 23 -55 52 -30 32 -48 45 -48 35 0 -9 5 -19 10 -22 6 -3 10 -15 10 -26 0
-16 28 -90 47 -121 2 -5 -57 -8 -132 -8 -77 0 -134 4 -131 9 3 5 -1 14 -9 21
-13 10 -15 9 -15 -9 0 -19 -6 -21 -49 -21 l-49 0 -7 40 c-4 22 -11 43 -17 46
-5 3 -7 23 -3 44 3 21 2 55 -4 76 -5 22 -11 66 -12 99 -3 80 -13 112 -44 140
-23 23 -25 23 -25 5 0 -17 -7 -20 -40 -20 -22 0 -42 -6 -47 -14 -4 -7 -18 -18
-30 -25 -21 -10 -23 -8 -34 31 -14 55 -26 69 -54 62 -16 -4 -26 1 -38 20 -12
18 -14 27 -5 32 8 5 7 10 -3 18 -18 15 -39 52 -39 69 0 18 -30 77 -39 77 -4 0
-12 -5 -19 -12 -21 -21 -41 -17 -68 15 -37 44 -71 49 -339 46 -126 -2 -261 -2
-300 -2 -38 1 -86 1 -105 2 -25 0 -43 -8 -65 -28 -31 -30 -55 -31 -55 -3 1 10
18 46 40 82 38 64 38 65 15 68 -26 4 -40 -7 -161 -128 -141 -140 -284 -325
-284 -368 0 -7 -4 -10 -10 -7 -6 4 -10 -6 -10 -24 0 -39 18 -50 22 -14 4 25 5
26 12 8 4 -11 12 -28 17 -37 5 -10 9 -29 9 -43 0 -14 5 -25 11 -25 7 0 9 -11
6 -26 -3 -15 0 -28 8 -30 8 -3 13 -26 14 -59 0 -29 5 -65 11 -80 5 -14 10 -28
10 -31 0 -2 -160 -4 -356 -4 l-357 0 -70 46 c-101 67 -155 91 -219 99 -32 3
-60 11 -63 16 -4 5 -13 5 -23 0 -9 -5 -44 -12 -77 -16 -33 -4 -64 -11 -70 -15
-5 -4 -28 -11 -50 -14 l-40 -7 21 21 c11 12 36 27 55 33 19 7 35 17 34 22 0
12 -126 13 -175 1 -28 -6 -33 -6 -23 4 7 7 49 23 95 35 109 30 81 46 -36 22
-44 -9 -82 -14 -85 -12 -2 3 22 17 54 31 41 19 82 29 132 32 40 3 76 8 78 13
10 15 -108 31 -194 25 -84 -6 -85 -5 -47 9 22 8 42 18 45 21 3 4 -43 4 -104 0
-60 -3 -105 -2 -100 2 36 32 231 82 317 82 19 0 27 4 22 11 -5 8 -46 10 -135
7 -70 -3 -126 -2 -124 1 2 3 38 24 81 46 65 33 89 40 150 43 41 3 74 6 74 9 0
2 -5 13 -10 24 -9 16 -22 19 -91 19 -44 0 -111 -5 -149 -11 -38 -7 -76 -9 -86
-5 -16 6 -16 8 0 25 9 10 37 24 62 31 53 15 58 30 10 30 -19 0 -37 4 -40 9 -6
9 36 31 59 31 19 0 30 19 17 32 -12 12 12 63 34 72 8 3 13 10 10 15 -4 5 28 7
76 5 l83 -5 -74 26 c-40 14 -84 25 -97 25 -13 0 -24 4 -24 8 0 9 102 32 143
32 28 0 116 -43 129 -63 5 -8 8 -8 8 -1 0 16 -68 76 -122 108 -24 14 -75 37
-112 50 -38 14 -71 28 -74 31 -3 3 44 56 104 117 167 173 245 300 259 423 4
33 18 96 31 140 28 98 58 255 74 395 6 57 14 108 16 112 3 5 19 -5 35 -22 17
-16 35 -30 40 -30 15 0 10 40 -9 79 -11 20 -29 68 -41 106 -13 39 -27 79 -32
90 -11 22 -52 45 -83 46 -12 0 -1 6 23 14 24 7 49 11 57 8 10 -3 14 3 14 20 0
14 16 48 35 76 19 28 35 55 35 59 0 5 -20 15 -45 22 -41 11 -47 11 -59 -5 -7
-11 -29 -19 -56 -21 -69 -6 -68 -25 3 -42 41 -11 87 -46 75 -58 -4 -3 -19 1
-35 10 -16 8 -61 22 -99 31 -38 9 -79 22 -91 30 -32 21 -43 19 -43 -10 0 -21
-10 -30 -63 -55 -35 -17 -75 -31 -88 -31 -21 -1 -20 -2 6 -8 l30 -7 -40 -7
c-173 -28 -302 -31 -237 -6 24 9 22 29 -3 29 -17 0 -13 79 5 90 6 4 13 42 16
86 8 130 10 142 23 158 11 13 10 17 -3 22 -20 8 -21 28 0 45 10 8 14 22 11 38
-3 14 1 44 9 66 7 22 14 52 14 67 0 43 20 76 54 88 17 6 76 13 131 16 110 6
253 30 273 46 6 6 12 19 12 30 0 16 -5 19 -22 15 -160 -40 -412 -75 -422 -59
-13 22 30 36 137 43 214 16 344 44 334 72 -2 7 -21 12 -42 12 -21 0 -40 5 -42
11 -2 7 8 9 27 6 33 -5 34 0 30 93 -2 49 -4 51 -34 37 -24 -11 -24 -10 -19 26
3 20 11 40 16 43 12 8 2 39 -13 39 -5 0 -10 -9 -10 -20 0 -11 -6 -20 -14 -20
-8 0 -32 -17 -54 -37 -42 -41 -152 -100 -204 -109 -43 -8 -30 5 40 41 29 15
66 41 82 56 16 16 33 29 38 29 19 0 41 36 35 58 -8 31 -46 28 -75 -6 -27 -32
-60 -49 -51 -26 3 7 9 14 15 14 5 0 8 13 6 30 -2 23 7 39 45 79 45 46 58 71
38 71 -5 0 -14 -7 -21 -15 -7 -8 -19 -15 -27 -15 -7 0 -16 -7 -19 -15 -4 -8
-12 -15 -18 -15 -7 0 -27 -16 -46 -35 -19 -19 -42 -35 -52 -35 -25 0 -23 15 5
37 22 17 25 41 5 54 -15 10 3 61 23 66 20 6 39 51 39 93 0 25 4 28 49 34 46 6
73 28 51 41 -6 4 -7 17 -4 30 3 14 -1 33 -11 48 -9 15 -14 34 -10 49 4 16 -1
30 -15 46 -24 26 -33 27 -50 7 -7 -8 -17 -15 -22 -15 -18 0 -20 31 -3 50 18
20 13 40 -10 40 -8 0 -22 11 -31 25 -9 14 -19 23 -22 21 -2 -3 2 -16 10 -28 9
-14 15 -54 17 -103 2 -78 2 -79 -18 -61 -22 20 -97 27 -123 12 -28 -17 -65 20
-133 132 -70 117 -119 172 -152 172 -33 0 -39 -23 -38 -140 2 -203 20 -298 79
-432 34 -77 51 -76 52 4 1 35 -1 57 -3 51 -7 -21 -23 -15 -23 8 0 11 -7 27
-15 35 -8 9 -18 27 -21 42 -3 15 -11 38 -19 52 -19 35 -23 82 -7 87 7 3 12 -4
12 -20 0 -13 3 -27 8 -31 4 -4 12 -29 17 -54 l10 -47 50 -3 c54 -4 67 -15 59
-48 -6 -24 11 -64 26 -64 6 0 10 7 10 15 0 8 9 34 19 57 11 24 22 52 26 62 3
10 8 17 10 14 3 -2 -2 -30 -10 -61 -8 -31 -18 -120 -21 -196 -4 -77 -10 -145
-14 -151 -14 -23 -67 0 -104 45 -20 24 -36 49 -36 56 0 10 -3 10 -11 2 -6 -6
-18 -9 -25 -6 -8 3 -14 -1 -14 -11 0 -9 5 -16 12 -16 9 0 9 -3 0 -12 -16 -16
-15 -28 3 -28 12 0 14 -9 10 -45 -4 -28 -2 -45 5 -45 5 0 10 -13 10 -30 0 -16
4 -30 9 -30 5 0 11 -14 15 -31 3 -18 16 -40 27 -50 l22 -19 -26 -39 c-28 -43
-31 -43 -111 -12 -28 11 -32 10 -62 -23 -18 -20 -38 -36 -43 -36 -6 0 -14 -12
-17 -27 -4 -16 -15 -36 -25 -46 -11 -10 -19 -24 -19 -32 0 -8 -6 -15 -14 -15
-8 0 -23 -16 -35 -35 -23 -40 -25 -40 -136 -20 -107 20 -114 19 -121 -9 -6
-27 15 -80 95 -234 8 -15 51 -66 97 -114 109 -114 114 -154 13 -108 -24 11
-53 20 -65 20 -11 0 -38 16 -60 36 -21 19 -49 40 -61 44 -17 7 -23 18 -23 39
0 16 -4 33 -10 36 -5 3 -10 16 -10 29 0 12 -11 37 -25 56 -14 19 -25 44 -25
56 0 12 -6 24 -14 27 -8 3 -17 27 -21 55 -6 48 -4 53 135 326 104 204 140 284
136 301 -3 13 -60 96 -126 185 -66 89 -120 165 -120 169 0 3 -18 31 -41 61
-30 40 -39 60 -34 78 5 20 3 23 -14 17 -20 -6 -51 17 -51 40 0 29 14 47 53 67
34 17 38 22 26 32 -33 25 16 76 75 76 14 0 28 5 31 10 13 21 46 10 63 -21 24
-43 52 -79 62 -79 12 0 19 42 22 128 1 39 5 72 8 72 11 0 30 -123 31 -196 1
-38 4 -94 8 -124 l6 -55 22 48 22 48 24 -18 c13 -10 30 -31 36 -48 7 -16 17
-38 22 -47 5 -10 9 -27 9 -37 0 -11 5 -23 12 -27 8 -5 9 5 4 36 -7 42 -33 102
-48 108 -5 2 -8 13 -8 23 0 11 -5 30 -12 42 -6 12 -17 51 -23 87 -23 121 -47
174 -119 263 -21 26 -36 50 -34 53 8 8 110 -42 138 -68 32 -29 90 -115 90
-132 0 -18 10 -25 26 -19 11 4 12 9 3 19 -13 16 2 19 17 4 12 -12 104 20 104
37 0 7 7 13 15 13 8 0 15 7 15 15 0 10 -10 15 -30 15 -16 0 -30 4 -30 8 0 5
-25 7 -55 4 -71 -6 -105 9 -159 69 -24 27 -49 49 -54 49 -14 0 -80 38 -115 67
-16 13 -37 23 -47 23 -10 0 -27 16 -39 36 -28 47 -35 39 -16 -16 10 -28 15
-80 15 -151 0 -106 -1 -110 -24 -120 -20 -9 -29 -8 -50 7 -14 11 -26 29 -26
42 0 12 -4 22 -9 22 -5 0 -8 17 -5 38 2 20 5 64 6 97 l3 59 -42 0 c-43 -1 -43
-1 -43 36 0 55 27 123 63 158 29 28 46 34 147 52 131 24 197 53 224 99 15 26
16 37 8 57 -7 13 -18 24 -26 24 -7 0 -19 7 -27 16 -7 8 -21 13 -30 11 -29 -8
-39 14 -29 58 14 60 12 112 -4 118 -8 3 -16 1 -18 -5 -3 -7 -11 -9 -19 -6 -24
9 -34 8 -34 -3 0 -6 -17 -17 -38 -24 -53 -18 -56 -24 -27 -47 83 -66 88 -81
26 -86 -31 -3 -38 0 -43 17 -3 12 -26 31 -57 45 -28 14 -58 31 -67 38 -23 19
-46 70 -41 95 4 23 74 97 95 99 6 0 19 4 27 7 8 3 44 15 79 27 l64 22 26 -33
c14 -18 31 -40 38 -48 10 -13 13 -9 13 24 2 85 -1 240 -6 244 -2 2 -14 -4 -25
-15 -16 -14 -23 -15 -26 -7 -5 14 -6 14 -137 -18 -94 -22 -136 -17 -136 16 0
32 -39 -4 -46 -43 -4 -20 -18 -65 -30 -100 -29 -76 -30 -133 -4 -191 30 -64
25 -81 -10 -41 -19 21 -30 45 -31 64 -1 29 -1 30 -8 6 -4 -15 -10 -20 -14 -13
-4 6 -5 18 -2 25 3 8 -3 22 -13 31 -17 16 -21 16 -61 -4 -40 -19 -44 -19 -68
-4 -17 12 -36 15 -58 11 -19 -4 -36 -2 -39 3 -3 5 -30 17 -60 26 -72 23 -144
87 -156 141 -22 91 -9 246 27 327 14 33 15 45 4 90 -7 29 -17 84 -23 124 -10
63 -9 76 7 110 24 51 66 91 112 107 40 14 223 15 299 1 39 -7 41 -6 54 24 22
55 83 36 133 -41 19 -29 43 -61 55 -71 20 -18 21 -18 46 25 36 62 50 131 34
174 -9 26 -16 33 -30 28 -14 -4 -18 0 -18 20 0 14 5 28 10 31 6 3 10 19 10 35
0 40 -75 126 -106 122 -26 -3 -38 12 -38 47 -1 21 -11 28 -71 49 -58 21 -89
26 -182 26 -100 1 -109 2 -86 14 15 8 47 12 79 10 30 -1 54 0 54 3 0 3 -24 11
-52 18 -29 7 -72 19 -96 27 -49 16 -78 16 -222 0z m-332 -1353 c2 -25 8 -33
23 -33 23 0 25 -22 4 -40 -24 -20 -17 -31 18 -28 29 3 32 6 29 34 -2 21 2 33
12 37 25 10 28 -9 12 -74 -9 -33 -16 -62 -16 -64 0 -2 9 -1 20 2 23 6 36 57
26 104 l-6 30 58 -7 c31 -3 57 -7 58 -8 45 -85 61 -138 63 -203 1 -56 -1 -73
-12 -73 -8 0 -29 -8 -48 -17 -56 -28 -95 -21 -184 32 -94 58 -210 148 -225
175 -16 30 -12 86 9 111 20 25 103 59 136 56 15 -1 21 -11 23 -34z m308 -390
c4 -80 19 -154 41 -200 28 -60 87 -127 121 -138 13 -4 45 -20 70 -36 41 -25
67 -34 107 -39 6 0 1 -7 -9 -15 -25 -19 -15 -28 31 -32 59 -4 59 -20 1 -32
-37 -8 -51 -38 -24 -53 23 -13 20 -38 -5 -38 -29 0 -15 -16 21 -23 16 -4 30
-11 30 -16 0 -17 -83 -23 -140 -11 -86 18 -105 18 -104 -2 1 -10 -2 -18 -7
-18 -5 0 -9 7 -9 15 0 8 -9 15 -19 15 -11 0 -23 5 -26 10 -3 6 -17 10 -31 10
-14 0 -23 4 -20 9 4 5 -3 7 -15 4 -15 -4 -29 4 -54 33 -38 43 -37 41 -60 284
-3 36 -11 96 -16 133 -13 81 -8 97 28 97 36 0 73 26 73 51 0 30 15 22 16 -8z
m517 -1115 c3 -23 12 -47 20 -53 11 -8 12 -16 5 -29 -13 -24 8 -49 22 -26 5 8
8 22 6 30 -3 8 -7 41 -11 73 l-7 58 26 -6 c14 -3 36 -7 49 -10 18 -4 87 -82
87 -99 0 -3 56 -81 124 -174 146 -200 150 -206 136 -229 -5 -10 -55 -110 -110
-223 -141 -286 -152 -301 -165 -239 -4 17 -15 46 -25 63 -10 17 -21 48 -24 68
-4 21 -18 50 -31 66 -34 41 -43 68 -44 138 0 34 -5 74 -11 88 -5 15 -10 64
-10 110 0 45 -7 108 -15 141 -9 32 -14 64 -12 69 6 16 -17 126 -32 158 -14 27
-8 83 8 74 5 -3 11 -25 14 -48z m-1663 -17 c16 -16 32 -41 36 -57 4 -15 22
-53 40 -83 28 -49 55 -115 41 -101 -18 18 -77 102 -77 110 0 6 -6 10 -14 10
-12 0 -12 -7 1 -47 9 -27 16 -57 17 -69 2 -11 6 -25 9 -32 8 -12 -28 -36 -42
-27 -5 3 -17 31 -27 63 -9 31 -21 61 -26 67 -4 5 -8 15 -8 22 0 7 -9 32 -19
56 -25 55 -34 97 -21 97 5 0 10 -6 10 -14 0 -25 27 -68 35 -56 4 7 2 23 -5 36
-11 19 -11 26 0 39 16 20 17 20 50 -14z m1356 -177 c-4 -19 -1 -24 10 -20 10
4 14 -2 14 -17 0 -28 -50 -176 -79 -234 -12 -23 -21 -47 -21 -53 0 -5 -5 -10
-10 -10 -6 0 -17 -18 -26 -40 -9 -22 -20 -40 -25 -40 -5 0 -9 -8 -9 -17 0 -14
-5 -13 -26 8 l-26 26 91 188 c50 103 91 195 91 205 0 15 8 30 17 30 2 0 1 -12
-1 -26z m-71 -36 c-6 -20 -95 -232 -140 -334 -13 -29 -12 -34 12 -69 l26 -38
-47 -94 c-25 -52 -44 -98 -41 -103 3 -4 -2 -10 -10 -14 -17 -6 -21 -36 -5 -36
6 0 10 4 10 9 0 5 10 11 22 13 12 2 27 13 33 25 6 12 25 38 43 59 36 41 45 39
82 -21 30 -49 9 -118 -53 -176 -25 -23 -39 -29 -64 -25 -18 3 -35 0 -39 -5 -3
-5 -10 -7 -15 -4 -5 3 -17 -8 -28 -25 -11 -19 -22 -27 -25 -21 -16 25 -34 9
-40 -33 -8 -53 -26 -63 -60 -31 -22 20 -29 22 -63 13 -63 -16 -163 -18 -163
-3 0 8 -10 15 -22 17 -16 2 -25 13 -33 43 -12 48 -58 118 -91 140 -13 8 -24
22 -24 30 0 8 -8 23 -18 33 -20 20 -52 107 -52 141 0 16 -6 21 -25 21 -18 0
-25 5 -25 20 0 10 -8 24 -17 29 -56 30 -204 179 -221 222 -21 51 -32 113 -19
100 16 -16 27 -13 21 4 -4 8 -1 15 5 15 6 0 11 -8 11 -19 0 -12 9 -20 28 -24
33 -6 43 1 19 14 -29 17 -19 29 26 29 44 0 330 26 382 35 17 3 100 12 186 19
85 8 204 24 265 35 60 11 120 22 134 24 14 2 29 5 33 6 5 0 5 -9 2 -21z
m-1402 -156 c31 -14 57 -29 57 -34 0 -4 9 -8 21 -8 13 0 23 -10 30 -30 6 -16
15 -30 21 -30 6 0 8 -6 5 -14 -3 -7 1 -24 10 -35 8 -12 12 -25 9 -28 -7 -7
-102 34 -127 54 -24 20 -30 16 -17 -12 6 -13 19 -27 28 -30 9 -3 22 -16 28
-29 9 -21 8 -27 -11 -40 -22 -15 -22 -16 37 -71 32 -31 56 -58 53 -61 -8 -9
-108 46 -172 94 -126 95 -158 140 -121 171 11 9 15 9 19 -1 3 -7 3 7 0 32 -3
25 -10 48 -16 51 -5 4 -11 25 -12 47 l-2 40 51 -20 c28 -11 77 -31 109 -46z
m1975 -884 c31 -33 92 -82 113 -94 37 -18 42 -39 21 -82 -24 -51 -68 -65 -184
-56 -109 8 -112 12 -99 121 5 42 8 81 5 85 -3 4 4 12 15 17 10 6 29 27 41 48
l22 38 29 -35 c17 -19 33 -38 37 -42z m-514 -133 c-2 -55 -10 -140 -16 -188
-11 -86 -12 -89 -52 -122 -23 -18 -63 -45 -91 -60 -27 -15 -68 -38 -91 -50
-55 -31 -206 -82 -277 -94 -57 -10 -117 -37 -117 -53 0 -17 -20 -7 -36 18 -13
19 -14 28 -5 37 6 6 11 23 11 39 0 26 2 27 33 22 17 -3 46 -10 62 -15 45 -13
134 5 204 43 68 37 79 58 29 58 -72 -1 -106 11 -145 54 -22 22 -48 46 -59 52
-16 10 -17 14 -6 25 7 8 18 14 25 14 7 1 25 5 40 9 22 7 33 4 50 -12 12 -11
32 -23 44 -26 12 -4 40 -25 62 -46 46 -45 63 -49 82 -19 12 17 18 19 41 10 24
-9 32 -6 70 26 48 40 67 68 68 100 0 12 5 25 10 28 6 3 10 13 10 21 0 8 -4 13
-9 9 -14 -8 -23 31 -13 52 5 10 17 32 26 50 9 17 16 39 16 50 0 10 5 36 11 57
18 64 28 23 23 -89z m-263 35 c5 0 9 -7 9 -16 0 -8 5 -12 10 -9 6 3 10 -1 10
-10 0 -9 9 -19 20 -22 11 -3 20 -12 20 -19 0 -8 9 -14 20 -14 14 0 21 -9 26
-35 9 -51 0 -67 -33 -59 -39 10 -59 25 -86 65 -12 19 -33 38 -45 44 -29 13
-28 29 6 72 20 28 28 32 30 20 2 -9 8 -17 13 -17z m1423 -122 c2 -7 9 -47 16
-88 7 -41 18 -97 25 -125 8 -27 16 -100 20 -160 7 -140 27 -225 54 -244 25
-16 26 -45 10 -157 -11 -69 -16 -82 -52 -121 -22 -24 -46 -43 -53 -43 -16 0
-104 78 -104 92 0 5 -9 21 -21 37 -18 25 -21 42 -20 137 1 123 8 170 27 199 8
11 14 29 14 40 0 11 6 45 14 75 8 30 19 118 25 195 5 78 13 149 17 158 7 20
23 22 28 5z m556 -107 c0 -5 -14 -11 -31 -15 -17 -3 -28 -10 -24 -16 3 -5 1
-10 -5 -10 -6 0 -9 -4 -6 -9 9 -14 -4 -41 -20 -41 -8 0 -14 -4 -14 -10 0 -5 6
-10 13 -10 8 0 7 -4 -3 -10 -23 -15 -37 -12 -43 10 -5 21 -27 28 -27 9 0 -8
-5 -8 -15 1 -8 7 -15 19 -15 27 0 12 -10 14 -51 8 -54 -8 -62 6 -15 25 17 7
12 9 -23 9 -71 1 -39 13 71 26 127 16 208 18 208 6z m-830 -30 c0 -16 -51 -53
-180 -131 -131 -80 -180 -115 -252 -187 -43 -42 -80 -85 -84 -95 -5 -18 -24
-25 -24 -9 0 53 97 173 191 236 115 77 149 108 149 131 0 18 7 25 28 30 15 3
36 9 47 12 11 3 25 5 31 4 6 -1 24 4 39 12 26 14 55 12 55 -3z m-149 -308 c7
-7 2 -30 -12 -64 -51 -127 -69 -193 -57 -200 13 -8 58 26 58 43 0 5 12 22 28
37 29 31 82 50 82 30 0 -8 7 -6 18 4 22 20 72 23 72 5 1 -9 4 -8 13 2 7 8 22
16 35 17 19 2 22 -2 22 -31 0 -40 -15 -59 -99 -126 -77 -61 -96 -64 -88 -15 4
24 1 40 -10 50 -14 15 -17 13 -33 -12 -9 -16 -20 -45 -24 -65 -4 -21 -25 -58
-49 -87 -33 -40 -56 -56 -108 -76 -49 -19 -72 -23 -90 -17 -13 5 -30 7 -37 4
-22 -7 -82 30 -82 51 0 23 183 390 216 434 23 30 27 32 80 28 31 -1 60 -7 65
-12z m1134 -93 c-1 -54 -6 -105 -12 -112 -6 -7 -16 -29 -22 -49 -7 -23 -30
-52 -61 -78 -28 -23 -50 -48 -50 -55 0 -7 -10 -24 -23 -38 -13 -14 -30 -40
-37 -58 -8 -19 -16 -28 -18 -22 -5 16 -32 2 -32 -17 0 -9 5 -22 11 -28 8 -8 4
-15 -12 -27 -16 -11 -23 -26 -24 -48 0 -28 -4 -33 -30 -38 -27 -5 -31 -10 -38
-58 -5 -28 -12 -52 -17 -52 -5 0 -21 -11 -36 -25 -15 -14 -31 -25 -35 -25 -5
0 -9 -8 -9 -19 0 -10 -10 -25 -23 -34 -12 -8 -31 -31 -42 -51 -11 -20 -24 -35
-29 -33 -5 2 -18 -5 -28 -15 -10 -10 -29 -18 -43 -18 -32 0 -32 -6 6 -37 34
-29 45 -52 65 -133 13 -53 13 -56 -13 -93 -19 -27 -32 -37 -45 -34 -10 3 -21
0 -25 -5 -3 -6 -15 6 -26 27 -13 26 -21 34 -27 25 -5 -8 -10 -8 -14 -2 -3 6 0
12 6 15 9 3 2 16 -19 37 -18 17 -33 35 -33 41 0 5 -18 17 -40 26 -45 20 -48
26 -22 45 20 15 62 73 62 86 0 10 -57 22 -108 22 -20 0 -31 4 -27 10 3 6 28
10 56 10 44 0 53 5 47 28 -1 4 11 9 27 12 38 7 44 33 16 71 -22 30 -20 62 2
40 18 -18 44 -13 50 9 4 16 11 19 36 14 27 -6 31 -4 31 14 0 12 -4 24 -10 27
-18 11 -11 28 9 22 24 -6 47 18 55 59 9 40 -12 61 -43 42 -26 -16 -34 -7 -22
24 10 28 46 38 136 38 28 0 57 5 65 10 12 8 12 10 1 10 -10 0 -11 3 -2 13 6 8
8 33 4 66 -5 45 -3 54 16 73 l23 20 27 -26 c32 -31 42 -26 34 18 -6 28 -5 30
11 17 15 -12 19 -12 33 2 14 13 14 20 4 46 -9 20 -10 35 -3 47 7 12 6 23 -1
35 -15 24 -4 33 22 17 12 -7 21 -23 21 -36 0 -13 4 -20 10 -17 6 4 8 10 5 15
-3 6 12 13 35 16 22 4 40 10 40 15 0 5 -4 9 -9 9 -5 0 -8 8 -7 17 1 12 -11 21
-33 29 -36 12 -45 23 -55 70 -7 30 -4 33 40 53 51 24 108 38 165 40 l35 1 -1
-100z m-1960 60 c8 -7 15 -20 16 -29 0 -12 2 -11 9 4 6 13 9 -11 9 -72 1 -106
-11 -129 -60 -118 -29 7 -37 -3 -19 -21 7 -7 4 -19 -10 -37 -41 -52 -52 -52
-136 3 -42 27 -123 73 -181 102 -112 56 -168 96 -175 126 -5 17 3 18 116 14
106 -3 132 0 211 22 96 26 192 29 220 6z m592 -76 c-49 -103 -151 -284 -159
-284 -9 0 1 57 13 82 5 9 9 26 9 37 0 36 47 128 81 158 18 15 44 40 57 56 14
15 27 25 29 23 2 -2 -11 -34 -30 -72z m-2022 -10 c25 -4 33 -10 26 -17 -6 -6
-5 -14 5 -24 8 -8 14 -25 14 -38 0 -30 20 -50 64 -65 24 -7 36 -18 38 -33 2
-17 12 -23 41 -28 43 -7 87 -43 88 -73 0 -20 1 -20 8 -2 7 18 8 18 14 2 5 -12
13 -15 27 -11 26 8 26 -11 0 -25 -23 -13 -27 -40 -5 -40 8 0 15 9 15 20 0 24
13 26 31 4 8 -10 22 -14 38 -11 15 3 35 -1 45 -9 11 -8 31 -14 44 -14 13 0 40
-13 59 -30 18 -16 39 -30 46 -30 13 0 143 -83 184 -117 11 -10 24 -33 28 -50
4 -19 13 -33 21 -33 8 0 14 -7 14 -15 0 -18 12 -19 27 -4 8 8 26 -3 67 -42 30
-28 53 -56 51 -60 -3 -4 1 -10 7 -13 10 -5 10 -7 1 -12 -7 -3 -13 -9 -13 -14
0 -15 40 -22 55 -10 12 10 15 9 15 -9 0 -13 -9 -25 -22 -31 -13 -5 -17 -9 -10
-9 7 -1 26 6 43 14 29 16 30 15 28 -7 -4 -48 0 -58 26 -58 14 0 28 -7 32 -15
6 -16 53 -45 74 -45 6 0 8 7 5 16 -3 9 -3 14 1 12 5 -2 51 -24 103 -49 98 -47
260 -146 260 -159 0 -4 35 -46 78 -92 42 -46 87 -97 98 -114 l22 -29 53 56
c37 39 70 63 104 75 28 10 74 33 104 51 30 18 70 35 90 39 61 9 104 33 161 87
81 77 98 87 157 87 57 0 73 -10 100 -67 9 -20 29 -43 45 -52 15 -9 33 -31 39
-48 9 -28 8 -37 -10 -59 -12 -15 -21 -34 -21 -43 0 -9 -9 -31 -20 -49 -11 -18
-20 -40 -20 -49 0 -8 -10 -26 -22 -38 -13 -12 -32 -37 -43 -56 -48 -83 -61
-105 -77 -129 -20 -30 -33 -80 -22 -80 5 0 16 15 23 32 8 18 35 56 60 85 40
46 46 49 58 35 15 -21 16 -32 3 -52 -9 -13 -11 -13 -20 0 -13 21 -13 -40 1
-100 6 -28 7 -52 1 -65 -18 -37 -42 -110 -42 -125 0 -8 -12 -59 -27 -112 l-27
-98 -33 0 c-34 0 -34 0 -27 38 10 61 44 165 58 182 8 8 17 26 21 40 4 14 16
36 26 49 11 13 19 31 18 40 0 9 -7 1 -15 -17 -17 -39 -43 -52 -56 -29 -5 10
-12 17 -16 17 -11 0 -32 -54 -52 -133 -11 -40 -27 -97 -38 -127 l-19 -55 -61
-3 -61 -3 24 76 c27 90 42 185 27 170 -12 -11 -56 -98 -95 -187 l-26 -58 -85
0 c-48 0 -86 1 -86 3 0 2 20 43 44 93 63 127 76 162 76 201 0 48 -11 37 -90
-87 -35 -55 -71 -101 -79 -102 -9 0 -20 -2 -26 -3 -5 -2 -14 -3 -20 -4 -5 -1
-3 -6 5 -11 12 -8 10 -14 -14 -39 -39 -41 -73 -53 -140 -49 l-58 3 30 40 c17
22 42 54 56 71 26 31 56 93 56 114 0 5 -9 10 -20 10 -11 0 -20 -5 -20 -11 0
-5 -4 -8 -9 -4 -5 3 -15 -11 -21 -30 -6 -19 -26 -46 -43 -59 -29 -23 -34 -24
-54 -11 -12 8 -29 15 -37 15 -14 0 -31 -44 -22 -58 2 -4 7 -24 10 -44 l6 -38
-55 0 -54 0 -11 43 c-6 23 -15 54 -20 69 -4 15 -6 63 -3 106 5 71 3 83 -23
137 -15 33 -27 71 -26 83 4 55 -59 205 -100 240 -16 13 -44 48 -64 78 -30 45
-41 54 -66 54 -25 0 -29 4 -26 23 2 16 -3 23 -20 25 -12 2 -26 12 -32 22 -5
10 -22 21 -37 25 -15 3 -30 10 -33 13 -16 22 -99 80 -122 85 -14 4 -39 18 -55
31 -16 14 -42 28 -58 32 -30 8 -104 54 -124 78 -7 8 -30 17 -52 21 -22 4 -39
12 -39 20 0 7 -30 29 -67 47 -43 22 -69 42 -72 54 -2 10 -16 32 -32 48 -16 17
-29 40 -29 52 0 22 -42 64 -65 64 -6 0 -21 10 -32 23 -11 12 -50 51 -87 86
-40 38 -66 72 -66 85 -1 27 -23 56 -43 56 -9 0 -19 5 -23 12 -9 14 -9 76 0
105 6 18 1 21 -52 26 -77 8 -90 14 -107 48 -19 36 -19 77 0 122 14 34 41 49
72 41 6 -1 28 -6 48 -10z m1097 -235 c80 -41 119 -85 64 -74 -12 2 -65 9 -119
16 -67 9 -103 18 -117 31 -17 16 -20 17 -28 1 -11 -19 -42 -11 -42 10 0 17 17
33 45 40 42 12 153 -2 197 -24z m-142 -89 c30 -5 108 -14 172 -19 122 -9 140
-14 132 -34 -6 -17 -162 -16 -193 2 -21 12 -26 11 -36 -3 -16 -21 -104 -21
-188 -1 -34 8 -78 17 -97 20 -47 7 -64 19 -56 40 6 16 17 17 109 11 56 -4 127
-11 157 -16z m1505 -38 c5 -13 -54 -54 -111 -78 -41 -17 -116 -18 -132 -2 -17
17 -15 48 3 48 7 0 18 7 23 16 16 28 207 42 217 16z"/>
<path d="M2150 711 c0 -5 -35 -47 -78 -93 -42 -46 -94 -104 -114 -129 -21 -26
-59 -59 -84 -74 -39 -23 -54 -26 -90 -21 l-44 6 0 -36 c0 -24 8 -43 24 -59 21
-21 31 -24 81 -20 31 2 63 9 70 15 7 6 26 10 41 8 22 -2 31 4 48 34 12 20 36
63 53 94 37 65 116 284 102 284 -5 0 -9 -4 -9 -9z"/>
<path d="M5980 6460 c-118 -8 -216 -27 -255 -50 -16 -10 -46 -23 -66 -29 -19
-6 -53 -30 -76 -54 -48 -50 -123 -155 -123 -172 0 -7 -13 -30 -29 -53 -47 -64
-91 -147 -91 -171 0 -12 -13 -48 -30 -81 -16 -33 -30 -64 -30 -70 0 -6 -9 -29
-20 -53 -14 -30 -23 -83 -31 -187 -6 -80 -13 -174 -16 -210 -3 -35 0 -89 6
-120 5 -30 18 -100 27 -155 9 -55 21 -104 26 -110 4 -5 8 -18 8 -28 0 -10 6
-31 14 -45 8 -15 17 -40 21 -55 11 -52 98 -72 175 -41 51 21 63 12 18 -12 -23
-13 -53 -18 -100 -17 -60 1 -68 -1 -68 -17 0 -10 -19 -47 -43 -82 -38 -56 -73
-145 -62 -157 2 -2 18 2 34 9 26 11 34 9 61 -10 27 -19 45 -50 19 -35 -5 4
-27 -5 -47 -18 -55 -38 -93 -51 -104 -35 -9 14 -19 4 -63 -58 -11 -16 -37 -47
-57 -70 -57 -62 -69 -100 -64 -196 3 -44 10 -86 15 -91 15 -15 51 20 51 49 0
13 5 26 10 29 6 3 10 15 10 26 0 10 6 19 14 19 8 0 14 -8 14 -17 -1 -10 1 -30
5 -44 5 -21 -2 -34 -38 -75 -28 -30 -45 -58 -45 -74 0 -33 -41 -128 -59 -135
-10 -4 -12 2 -8 24 5 25 3 28 -13 24 -11 -3 -20 -14 -20 -24 0 -23 -23 -25
-40 -4 -10 12 -10 18 0 30 18 21 6 80 -25 126 -14 21 -25 43 -25 49 0 10 -23
14 -32 5 -3 -3 6 -27 19 -53 18 -35 22 -56 18 -83 -5 -27 -2 -41 12 -54 10
-10 16 -28 15 -39 -2 -12 7 -31 18 -44 16 -16 20 -33 19 -65 -3 -60 8 -74 32
-42 11 13 18 29 14 35 -3 6 0 7 9 4 9 -3 21 -24 26 -45 6 -21 15 -39 20 -39 4
0 15 -3 23 -6 11 -4 19 7 30 38 12 34 16 38 16 18 1 -14 8 -38 16 -54 8 -15
15 -34 15 -41 0 -7 7 -15 15 -19 8 -3 15 -13 15 -22 0 -11 6 -15 19 -11 20 5
61 -25 61 -44 0 -9 -7 -25 -30 -69 -8 -14 -19 -36 -27 -50 -7 -14 -13 -44 -13
-67 0 -44 -14 -64 -24 -36 -6 14 -9 13 -31 -7 -19 -18 -24 -32 -22 -61 1 -21
8 -44 15 -51 15 -15 16 -45 2 -53 -7 -4 -9 2 -4 19 5 23 3 26 -19 26 -14 0
-30 8 -36 17 -7 14 -12 15 -24 4 -9 -7 -13 -20 -10 -29 5 -12 0 -11 -24 6 -39
27 -50 83 -63 300 -6 84 -12 157 -14 161 -3 4 -7 31 -10 59 -3 29 -12 64 -20
79 l-15 28 -10 -25 -11 -25 3 28 c3 15 0 27 -4 27 -5 0 -9 7 -9 15 0 8 -4 15
-10 15 -5 0 -10 -9 -10 -20 0 -11 -7 -23 -15 -26 -15 -6 -20 -35 -8 -48 13
-12 33 -81 33 -113 0 -17 -5 -44 -11 -59 -7 -21 -7 -34 2 -51 8 -16 9 -26 2
-35 -11 -13 -10 -41 2 -106 5 -26 2 -37 -12 -47 -17 -13 -17 -15 0 -43 22 -38
22 -60 0 -58 -13 1 -17 -5 -15 -19 2 -11 3 -37 2 -57 0 -21 3 -38 9 -38 13 0
21 -42 28 -143 5 -87 4 -90 -16 -84 -11 3 -25 -1 -32 -9 -14 -18 -3 -88 22
-128 20 -33 26 -96 9 -96 -20 0 -10 -38 20 -75 17 -21 30 -44 30 -52 0 -7 7
-25 16 -38 25 -38 12 -53 -53 -60 -106 -11 -263 -58 -346 -102 -52 -29 -107
-105 -107 -149 0 -30 39 -226 46 -234 3 -3 10 3 15 13 13 22 29 22 29 0 0 -10
7 -27 15 -37 8 -11 15 -28 15 -38 0 -29 20 -20 27 12 3 17 7 30 9 30 2 0 15
-12 29 -26 17 -17 23 -29 16 -33 -7 -5 -2 -19 14 -41 46 -63 27 -68 -36 -10
-24 22 -48 38 -54 36 -5 -2 -20 6 -32 17 -39 35 -35 13 12 -69 25 -43 45 -89
45 -101 0 -26 12 -30 29 -9 10 11 9 21 -3 45 -15 28 -15 31 1 40 14 7 20 4 29
-19 7 -16 11 -37 8 -47 -5 -22 2 -33 39 -56 24 -16 27 -16 27 -2 0 9 -4 24 -9
33 -4 9 -11 32 -14 50 -6 30 -5 32 13 22 15 -8 18 -17 13 -40 -6 -33 1 -38 24
-14 24 24 57 14 61 -18 3 -23 -2 -30 -32 -42 -20 -8 -36 -19 -36 -24 0 -18 26
-43 54 -50 43 -12 45 -32 4 -32 -36 0 -68 -27 -68 -58 0 -15 -32 -85 -76 -165
-20 -36 -16 -40 20 -22 16 8 37 15 47 15 11 0 19 6 19 13 0 37 163 66 176 32
3 -8 21 -20 40 -27 19 -6 34 -16 34 -20 0 -9 -77 -45 -220 -103 -25 -10 -52
-24 -60 -31 -8 -6 -26 -15 -40 -19 -14 -4 -44 -26 -67 -48 -24 -23 -43 -38
-43 -34 0 13 -47 -37 -54 -57 -5 -16 -3 -17 20 -12 32 8 29 -14 -4 -29 -27
-12 -28 -30 -2 -97 12 -31 20 -80 21 -118 1 -36 5 -78 9 -95 7 -29 8 -29 9 9
0 22 7 47 14 55 8 9 19 36 26 60 10 36 10 45 -1 52 -8 5 -15 2 -20 -12 -10
-26 -28 -15 -28 17 0 15 6 24 15 24 8 0 15 5 15 10 0 6 6 10 13 10 19 0 82 68
105 115 12 22 39 60 61 85 23 25 41 48 41 53 0 4 6 7 13 7 6 0 32 16 57 36 44
35 74 50 138 71 30 11 46 2 20 -11 -7 -3 -26 -15 -43 -26 -16 -11 -41 -25 -55
-30 -28 -13 -94 -79 -104 -106 -4 -12 2 -9 18 9 14 15 30 27 36 27 6 0 9 4 6
9 -3 5 5 12 19 15 14 4 25 12 25 19 0 17 110 57 158 57 22 0 43 4 46 9 3 4 31
11 63 14 76 8 107 14 234 42 58 13 155 31 214 40 60 9 112 18 117 22 6 3 -2
18 -17 33 -19 19 -41 30 -73 35 -26 3 -60 10 -77 14 -30 9 -104 25 -262 58
-75 15 -83 19 -83 39 0 75 139 254 226 290 65 27 64 27 345 -110 150 -73 237
-106 281 -106 51 0 122 -23 144 -45 11 -13 45 -30 75 -38 258 -74 409 -85 461
-32 91 91 119 125 124 151 9 43 48 67 116 72 70 5 128 -14 194 -64 l44 -34 0
62 c0 54 -2 59 -13 44 -11 -16 -17 -17 -36 -6 -37 19 -123 43 -160 44 -45 1
-49 17 -12 53 21 21 47 34 90 43 57 12 74 11 114 -5 15 -6 17 -1 17 49 0 50
-3 58 -24 65 -31 12 -42 51 -15 58 10 3 19 12 19 19 0 8 4 14 9 14 6 0 10 304
11 806 0 546 -3 803 -10 799 -5 -3 -10 -13 -10 -21 0 -14 -38 -96 -78 -169
-13 -24 -17 -27 -20 -12 -4 20 25 111 45 142 7 11 13 29 13 40 0 11 8 31 17
45 9 13 18 33 18 43 1 10 7 22 14 26 8 5 11 44 9 132 -3 102 -6 124 -18 124
-11 0 -14 -9 -12 -32 2 -18 -4 -47 -12 -65 -8 -18 -23 -57 -32 -87 -12 -37
-33 -70 -66 -105 -27 -28 -52 -55 -56 -61 -4 -5 -16 -15 -27 -21 -11 -6 -32
-35 -46 -65 -25 -49 -26 -60 -18 -104 14 -69 -2 -242 -21 -230 -4 2 -10 -14
-13 -36 -3 -22 -12 -48 -21 -58 -8 -9 -15 -25 -14 -36 1 -19 -39 -114 -69
-165 -8 -14 -24 -46 -35 -71 -18 -39 -25 -46 -47 -44 -14 1 -42 12 -61 23 -19
12 -42 22 -51 22 -9 0 -22 6 -29 14 -6 8 -18 12 -26 9 -8 -3 -20 -1 -27 5 -8
6 -27 6 -57 -2 -79 -21 -102 -15 -117 29 -7 21 -11 47 -8 56 9 27 -5 89 -20
89 -9 0 -11 8 -7 22 5 21 6 21 13 2 5 -12 8 -14 8 -4 0 8 -6 29 -13 45 -12 30
-13 29 -20 -35 -4 -36 -7 -83 -7 -105 1 -23 -7 -57 -19 -80 l-20 -39 -2 144
c-5 261 -3 281 24 375 14 50 40 142 58 205 43 159 79 271 95 296 8 12 11 31 8
42 -4 17 -1 20 15 15 14 -3 24 2 32 17 6 11 22 25 36 30 13 5 23 13 22 17 -4
17 16 59 40 82 17 15 39 24 64 25 21 0 38 4 38 8 0 4 9 10 20 13 27 9 25 18
-12 55 -28 28 -36 31 -67 25 -20 -4 -46 -8 -58 -9 -12 -1 -32 -13 -43 -27 -21
-24 -22 -24 -17 -1 3 12 1 20 -4 16 -17 -10 -13 63 4 84 6 8 27 20 46 28 38
15 81 70 81 104 0 18 3 19 22 9 30 -16 41 -28 55 -61 8 -18 17 -26 28 -22 9 4
18 -1 22 -12 9 -25 29 -44 45 -44 7 0 22 -9 31 -21 19 -22 48 -22 55 0 3 10 0
12 -12 8 -10 -4 -15 -3 -11 3 16 27 -106 132 -187 162 -32 11 -58 25 -58 31 0
5 11 41 25 79 28 78 33 172 14 285 -12 65 -11 71 18 143 16 41 36 96 43 123
20 74 33 70 26 -9 -4 -38 -2 -75 3 -83 9 -14 18 93 24 296 2 91 5 105 25 123
28 27 36 59 28 120 -5 37 -2 58 10 81 22 44 42 230 32 299 -30 195 -169 390
-340 473 -95 47 -242 107 -261 107 -8 0 -21 9 -28 21 -14 20 -79 40 -124 37
-11 -1 -63 -4 -115 -8z m0 -286 c32 -3 67 -1 84 6 18 7 33 7 39 1 15 -15 -2
-49 -26 -53 -34 -5 -35 -72 -3 -145 43 -97 76 -223 86 -325 9 -102 -1 -222
-21 -260 -7 -12 -13 -80 -15 -152 -2 -72 -8 -142 -13 -156 -5 -14 -12 -37 -15
-52 -10 -43 -79 -107 -148 -134 -57 -24 -70 -25 -182 -21 -67 3 -179 10 -250
16 -115 10 -130 9 -141 -5 -10 -15 -14 -14 -40 9 -25 21 -30 33 -32 78 -1 30
-14 97 -27 149 -33 127 -42 232 -23 291 8 25 32 70 54 100 22 30 44 68 50 84
9 27 14 30 59 33 44 2 47 1 26 -11 -23 -13 -59 -57 -46 -57 17 0 134 104 134
120 0 10 -16 32 -37 50 -30 27 -42 31 -70 27 -27 -5 -33 -2 -33 12 0 41 42 52
103 26 20 -8 41 -15 47 -15 16 0 12 42 -7 62 -20 22 -45 23 -84 2 -29 -15 -30
-15 -20 5 6 11 17 24 24 28 7 4 25 40 41 78 34 85 63 126 113 156 50 31 215
69 273 64 25 -3 70 -7 100 -11z m279 -479 c17 -20 33 -46 37 -59 5 -23 -10
-96 -43 -204 -15 -49 -18 -52 -26 -30 -14 35 -22 328 -9 328 5 0 24 -16 41
-35z m291 -334 c0 -11 4 -22 9 -25 4 -3 11 -36 15 -73 3 -37 9 -77 12 -88 8
-30 -51 -85 -114 -110 -29 -11 -52 -22 -52 -25 -1 -134 -10 -252 -20 -278 -20
-54 -22 -30 -4 60 11 58 14 104 10 142 -7 53 -9 56 -36 56 -34 0 -80 49 -80
87 0 20 -4 24 -17 18 -52 -21 -53 -21 -53 43 0 33 3 74 6 92 l7 32 11 -27 11
-27 30 30 c17 17 39 40 49 51 25 27 66 28 66 2 0 -11 5 -23 10 -26 18 -11 11
-63 -12 -85 -12 -11 -18 -23 -15 -27 12 -11 62 11 62 27 1 24 15 40 36 40 26
0 25 13 -8 69 -2 2 -12 -4 -24 -15 -21 -19 -21 -19 -17 11 3 29 5 30 46 27 36
-2 42 0 42 18 0 11 7 20 15 20 8 0 15 -9 15 -19z m-208 -387 c-5 -11 -12 -93
-16 -184 -6 -155 -31 -313 -57 -362 -14 -28 -11 -77 11 -148 18 -58 19 -75 9
-155 -5 -49 -18 -119 -28 -155 -11 -36 -33 -117 -51 -180 -48 -170 -59 -211
-65 -252 -3 -21 -9 -38 -13 -38 -4 0 -16 37 -26 83 -20 90 -31 120 -134 372
-95 231 -107 256 -142 300 -22 27 -30 48 -30 77 0 51 -35 88 -83 88 -42 0 -53
12 -60 71 -4 26 -18 73 -32 105 -22 49 -25 68 -20 107 l7 49 20 -34 c24 -38
64 -78 80 -78 13 0 53 41 61 64 4 9 12 16 19 16 7 0 25 6 40 14 42 22 77 26
163 18 l80 -7 10 -54 c8 -43 12 -51 21 -40 14 17 74 202 74 228 0 10 10 31 22
46 18 23 22 25 30 11 5 -9 15 -16 22 -16 8 0 16 -7 20 -15 10 -27 25 -16 32
23 11 61 23 87 35 75 7 -7 8 -17 1 -29z m-599 -1145 c11 -14 16 -17 19 -7 6
17 40 -52 62 -127 10 -33 38 -116 63 -185 66 -183 78 -269 77 -550 0 -168 -7
-220 -31 -220 -9 0 -36 -10 -60 -21 -24 -12 -66 -23 -92 -25 -42 -3 -51 0 -76
26 -15 16 -31 27 -35 25 -5 -3 -11 6 -14 20 -4 14 -13 25 -21 25 -14 0 -44 22
-85 61 -20 19 -42 150 -38 219 3 38 7 46 33 60 38 19 45 28 45 62 0 21 -10 34
-47 59 -63 43 -81 69 -48 69 8 0 15 5 15 12 0 14 40 58 52 58 5 0 35 26 66 58
53 54 83 113 88 172 1 9 6 25 13 37 15 29 14 90 -3 146 -15 49 -7 61 17 26z
m688 -1515 c21 -13 6 -22 -46 -29 -30 -3 -67 -12 -82 -20 -95 -45 -143 -64
-182 -70 -33 -6 -47 -14 -60 -36 -10 -18 -22 -27 -30 -24 -8 3 -17 2 -20 -3
-9 -13 -102 -2 -108 14 -3 7 3 21 13 31 13 14 18 15 22 5 3 -10 10 -8 27 8 13
12 39 25 57 29 19 4 33 13 33 21 0 9 12 16 29 18 16 2 46 14 67 28 21 13 49
24 61 24 38 -1 98 7 104 13 7 7 102 0 115 -9z m455 -50 c8 -38 7 -57 -4 -85
-12 -32 -12 -57 3 -195 9 -88 19 -178 22 -201 4 -35 2 -42 -16 -48 -11 -3 -30
-22 -42 -41 -25 -42 -46 -33 -28 12 16 42 3 214 -22 278 -13 35 -19 76 -19
130 0 72 3 85 36 143 19 35 41 62 47 60 7 -2 17 -26 23 -53z m-2249 -38 c-3
-8 0 -20 8 -26 10 -8 12 -26 8 -66 -4 -35 -2 -54 5 -54 6 0 14 9 17 20 10 30
34 50 61 50 32 0 30 -12 -4 -32 -16 -10 -41 -40 -55 -69 -31 -59 -32 -60 -12
-53 20 8 20 -20 -1 -37 -12 -10 -17 -10 -23 -1 -4 7 -15 10 -24 6 -12 -4 -17
-1 -17 10 0 9 8 16 19 16 14 0 18 5 14 20 -3 11 -9 20 -15 20 -10 0 -60 -31
-69 -43 -8 -12 1 -57 12 -57 5 0 9 -18 9 -40 0 -29 -4 -40 -15 -40 -8 0 -15 7
-15 15 0 8 -9 20 -20 27 -21 13 -29 68 -10 68 6 0 10 7 10 15 0 8 -9 15 -20
15 -16 0 -20 -7 -20 -35 0 -24 -5 -35 -15 -35 -18 0 -21 61 -3 89 12 20 5 51
-12 51 -5 0 -10 -9 -10 -20 0 -11 -4 -20 -10 -20 -16 0 -32 39 -25 61 11 35
113 126 158 142 57 20 81 21 74 3z m191 -148 c8 -8 15 -8 25 0 16 13 92 3 143
-20 54 -23 169 -108 146 -108 -11 0 -34 11 -50 25 -34 28 -57 32 -65 11 -3 -8
-21 -16 -39 -18 l-33 -3 40 -21 c29 -15 48 -19 67 -13 16 4 30 4 33 -1 2 -4
23 -10 46 -14 23 -4 55 -14 72 -23 l31 -16 -44 -16 c-25 -10 -46 -13 -48 -9
-2 4 -22 8 -44 8 -32 0 -39 3 -34 15 4 10 -2 19 -17 24 -30 12 -40 0 -28 -32
8 -21 8 -27 -4 -27 -7 0 -17 5 -20 11 -5 7 -15 5 -31 -5 -31 -21 -37 -20 -31
4 3 11 0 18 -7 17 -7 -1 -12 18 -14 51 -3 47 -5 52 -27 52 -26 0 -41 15 -25
25 23 14 9 27 -24 22 -25 -4 -36 -1 -40 9 -7 19 -26 18 -26 -1 0 -11 -11 -15
-40 -15 -42 0 -51 13 -27 42 28 35 91 50 115 26z m-5 -123 c50 -21 61 -45 54
-127 -7 -76 -29 -118 -77 -143 -47 -24 -82 -19 -116 18 -42 44 -57 88 -52 147
10 96 97 144 191 105z m375 -178 c2 -9 -8 -26 -22 -38 -20 -17 -23 -25 -15
-36 6 -7 17 -13 24 -13 7 0 18 -7 25 -15 15 -18 25 -11 25 18 0 16 8 23 32 28
63 13 65 -37 2 -64 -26 -11 -39 -23 -39 -37 0 -10 -22 -49 -49 -85 -28 -36
-51 -70 -53 -76 -4 -11 -58 11 -58 24 0 4 -7 7 -15 7 -9 0 -19 8 -22 18 -4 9
-11 20 -15 23 -29 19 -5 149 27 149 7 0 18 7 25 15 7 8 18 15 24 14 30 -4 34
1 26 37 -8 36 -7 38 35 47 29 6 40 3 43 -16z"/>
<path d="M5740 5870 c-24 -5 -53 -19 -64 -30 l-20 -20 20 -20 20 -20 59 20
c114 39 196 22 277 -57 26 -26 50 -44 54 -41 21 22 -63 115 -135 149 -52 25
-144 33 -211 19z"/>
<path d="M5763 5758 c-23 -26 -53 -81 -53 -99 0 -19 58 -69 80 -69 28 0 25 5
-16 30 -52 33 -30 42 56 23 41 -9 93 -17 115 -17 55 -1 59 28 10 82 -64 72
-151 94 -192 50z"/>
<path d="M5347 5381 c-42 -44 -47 -54 -47 -95 0 -33 6 -50 20 -64 13 -12 18
-25 14 -36 -5 -14 -1 -14 30 5 21 12 36 29 36 40 0 39 40 51 144 43 80 -6 96
-10 101 -25 4 -11 12 -16 20 -12 19 7 31 -25 16 -40 -22 -22 -10 -24 52 -7 54
15 62 20 65 43 2 20 -1 27 -13 27 -9 0 -51 14 -93 31 -42 16 -92 31 -112 33
-19 2 -41 4 -47 5 -7 0 -13 7 -13 15 0 21 -49 26 -63 6 -7 -9 -28 -25 -47 -35
-19 -10 -38 -23 -42 -29 -15 -23 -18 4 -4 33 9 16 16 37 16 45 0 8 7 22 16 31
10 9 13 20 8 25 -5 5 -29 -11 -57 -39z"/>
<path d="M5873 2948 c-13 -6 -23 -17 -23 -23 0 -7 -29 -21 -64 -31 -53 -15
-67 -23 -81 -51 -10 -18 -22 -33 -27 -33 -4 0 -8 -7 -8 -16 0 -13 7 -15 38 -9
20 3 55 15 77 25 22 10 55 24 73 30 22 9 34 21 38 39 3 14 10 36 15 49 5 13 9
25 9 27 0 8 -24 4 -47 -7z"/>
<path d="M2209 6201 c-17 -14 -25 -31 -26 -58 -1 -21 -5 -48 -8 -60 -6 -17 -3
-25 11 -30 11 -3 36 -17 58 -31 29 -18 41 -21 50 -12 8 8 7 15 -6 24 -22 17
-23 30 -1 67 14 24 15 33 5 49 -7 12 -8 20 -2 20 20 0 9 20 -20 35 -36 19 -33
19 -61 -4z"/>
<path d="M1985 6135 c-27 -6 -68 -22 -90 -34 -48 -27 -141 -116 -161 -153 -28
-54 -13 -63 36 -22 41 35 49 24 20 -28 l-23 -41 39 6 c23 4 46 16 56 29 15 20
19 21 28 8 6 -10 10 -11 10 -2 0 6 8 12 18 12 14 0 15 -2 2 -10 -13 -9 -13
-11 0 -20 48 -31 136 24 158 100 6 19 16 49 23 66 10 24 9 36 -2 59 -18 36
-50 45 -114 30z"/>
<path d="M900 4731 c-22 -6 -23 -8 -7 -14 10 -4 39 -7 63 -7 29 0 43 -4 39
-11 -4 -5 7 -15 24 -22 33 -12 35 -15 22 -36 -7 -11 -17 -9 -57 9 -54 24 -166
37 -210 25 l-29 -8 30 -7 30 -6 -33 -21 c-31 -19 -32 -22 -16 -31 25 -14 11
-27 -13 -14 -11 6 -25 7 -33 2 -12 -7 -11 -10 5 -15 46 -15 65 -25 65 -35 0
-18 -48 -22 -101 -10 -87 21 -272 -3 -229 -30 9 -6 4 -13 -19 -24 -17 -9 -31
-18 -31 -20 0 -2 43 -14 96 -26 106 -24 110 -35 26 -59 -62 -18 -45 -24 28
-11 86 16 238 -2 262 -30 17 -21 38 -27 38 -10 0 6 9 10 20 10 11 0 20 -5 20
-10 0 -7 99 -10 296 -8 l295 3 -33 28 c-18 16 -53 46 -77 68 -24 21 -47 39
-51 39 -9 0 -57 46 -153 147 -58 62 -77 88 -77 110 l0 28 -83 2 c-45 0 -93 -2
-107 -6z"/>
<path d="M7050 4060 c0 -5 -7 -16 -16 -24 -18 -19 -10 -36 16 -36 26 0 43 -33
27 -49 -9 -10 -8 -12 8 -10 11 2 26 0 33 -5 8 -5 21 -1 32 9 18 16 20 16 26 1
12 -31 20 -15 22 43 l2 59 -43 1 c-23 0 -57 5 -74 10 -18 5 -33 6 -33 1z"/>
<path d="M7061 3897 c-7 -6 -31 -12 -54 -12 -38 0 -42 -2 -45 -27 -2 -16 -9
-28 -18 -28 -12 0 -19 19 -15 43 2 11 -7 8 -29 -10 -11 -10 -20 -23 -20 -31 0
-19 -41 -31 -62 -19 -14 9 -24 4 -52 -25 -20 -21 -36 -41 -36 -47 0 -5 -14
-14 -31 -20 -17 -6 -33 -20 -36 -31 -3 -11 -9 -20 -14 -20 -4 0 -27 -19 -51
-42 -52 -52 -111 -103 -169 -148 -79 -61 -137 -131 -154 -189 -5 -16 -4 -21 4
-17 6 4 11 2 11 -4 0 -7 15 5 33 27 67 77 133 141 155 147 18 6 156 106 172
125 3 3 17 13 31 21 26 14 117 85 149 114 36 33 111 86 123 86 21 0 101 31
108 41 3 6 15 11 26 11 15 2 18 8 15 25 -6 31 -25 46 -41 30z"/>
<path d="M6970 1193 c0 -16 37 -60 118 -142 84 -85 98 -107 61 -96 -13 5 -25
2 -29 -6 -7 -10 -12 -10 -26 2 -10 8 -15 9 -11 2 12 -19 -11 -25 -40 -9 -31
15 -74 56 -113 105 -30 37 -40 39 -40 7 0 -19 18 -39 75 -83 41 -31 75 -63 75
-70 0 -8 7 -16 15 -19 22 -9 18 -37 -6 -52 -26 -17 -37 -7 -21 18 15 25 16 38
0 22 -19 -19 -30 -14 -76 28 -24 22 -48 40 -53 40 -5 0 12 -19 36 -41 60 -56
49 -64 -14 -11 -27 23 -54 42 -60 42 -5 0 -14 6 -18 13 -9 15 -114 60 -122 52
-3 -3 -4 -22 -3 -41 4 -61 -4 -74 -49 -74 -29 0 -41 5 -45 18 -3 9 -13 31 -22
47 -16 29 -17 56 -9 199 1 16 -3 31 -8 33 -20 6 -35 -63 -35 -163 0 -88 2
-101 20 -112 11 -7 20 -19 20 -27 0 -8 9 -15 20 -15 18 0 20 -5 14 -37 -5 -36
0 -45 80 -148 46 -60 100 -125 118 -142 125 -122 234 -232 301 -304 l77 -84 0
182 c0 136 -3 182 -12 186 -10 4 -10 7 0 18 9 10 12 78 12 272 l0 258 -32 30
c-18 16 -38 27 -45 24 -7 -2 -13 0 -13 4 0 5 -13 14 -30 20 -16 5 -30 15 -30
20 0 6 -6 11 -14 11 -8 0 -16 7 -20 15 -5 15 -46 22 -46 8z"/>
</g>
</svg>
